<svg width="105" height="105" viewBox="0 0 105 105" fill="none" xmlns="http://www.w3.org/2000/svg">
<g clip-path="url(#clip0_1_121)">
<path d="M15.4669 10.5601L22.17 86.3866L52.72 95.0601L83.1481 86.3866L89.9833 10.5601H15.4669ZM75.8966 28.5468L75.4091 33.3405L75.2364 35.321H39.5474L40.3802 44.8882H74.4138L74.0786 47.3562L71.9255 71.9546L71.7528 73.5999L52.7606 78.8405V78.871H52.6388L52.6083 78.8812V78.871H52.5981L33.4435 73.5897L32.2856 58.9038H41.538L42.1981 66.3382L52.5981 69.1515H52.6388L62.9981 66.3483L64.156 54.303H52.6083V54.2929H31.7981L29.4825 28.5468L29.3099 26.0788H76.0591L75.8966 28.5468Z" fill="#f97316"/>
</g>
<defs>
<clipPath id="clip0_1_121">
<rect width="104" height="104" fill="white" transform="translate(0.720001 0.810059)"/>
</clipPath>
</defs>
</svg>
