<svg width="104" height="105" viewBox="0 0 104 105" fill="none" xmlns="http://www.w3.org/2000/svg">
<path d="M6.49997 7.31006V98.3101H97.5V7.31006H6.49997ZM55.25 77.9976C55.25 86.8558 50.0175 91.1743 42.4429 91.1743C35.6017 91.1743 31.6306 87.6318 29.6156 83.356L36.5787 79.1412C37.9214 81.5238 38.9411 83.5388 41.8722 83.5388C44.3097 83.5388 46.3125 82.4399 46.3125 78.1641V49.5601H55.25V77.9976ZM75.4304 90.9712C67.4903 90.9712 62.3593 87.388 59.8548 82.4399L66.8281 78.4038C68.6562 81.3979 71.0429 83.3926 75.2578 83.3926C78.8003 83.3926 80.8579 81.8244 80.8579 79.3808C80.8579 76.4497 78.7393 75.4118 74.8292 73.6933L72.6923 72.7752C66.5214 70.1508 62.4304 66.8521 62.4304 59.8869C62.4304 53.4743 67.3156 48.7902 74.9511 48.7902C80.3887 48.7902 84.2948 50.4802 87.1081 55.4283L80.4375 59.7163C78.9709 57.0899 77.3906 56.0601 74.9409 56.0601C72.4364 56.0601 70.8479 57.6485 70.8479 59.7163C70.8479 62.2818 72.4364 63.3197 76.1007 64.9082L78.2376 65.8243C85.5075 68.9402 89.6004 72.1212 89.6004 79.263C89.6025 86.9615 83.5554 90.9712 75.4304 90.9712Z" fill="#f97316"/>
</svg>
