<svg width="105" height="105" viewBox="0 0 105 105" fill="none" xmlns="http://www.w3.org/2000/svg">
<g clip-path="url(#clip0_1_136)">
<path d="M85.2269 36.8037C84.13 36.4381 83.0332 36.0928 81.9363 35.7678C82.1191 35.0162 82.2816 34.2646 82.4441 33.5131C84.9425 21.4068 83.2972 11.6771 77.7519 8.46777C72.4097 5.40058 63.6957 8.58965 54.88 16.2678C54.0066 17.0193 53.1535 17.8115 52.341 18.6037C51.7925 18.0756 51.2238 17.5475 50.655 17.0396C41.4128 8.8334 32.1503 5.38027 26.605 8.60996C21.2832 11.6975 19.6988 20.8584 21.9332 32.3146C22.1566 33.4521 22.4003 34.5693 22.6847 35.7068C21.3847 36.0725 20.105 36.4787 18.9066 36.9053C8.05972 40.6631 0.280029 46.5943 0.280029 52.7287C0.280029 59.0662 8.56753 65.424 19.841 69.2834C20.755 69.5881 21.6691 69.8928 22.6035 70.1568C22.2988 71.3756 22.0347 72.574 21.791 73.8131C19.6582 85.0865 21.3238 94.024 26.6457 97.0912C32.13 100.26 41.3519 97.01 50.33 89.149C51.041 88.5193 51.7519 87.8693 52.4628 87.1787C53.3566 88.0521 54.291 88.885 55.2253 89.6975C63.9191 97.1725 72.5113 100.199 77.8128 97.1318C83.2972 93.9631 85.0847 84.3553 82.7691 72.6553C82.5863 71.7615 82.3832 70.8475 82.1597 69.9131C82.8097 69.7303 83.4394 69.5271 84.0691 69.324C95.7894 65.4443 104.28 59.1678 104.28 52.7287C104.28 46.574 96.2769 40.6021 85.2269 36.8037ZM57.7441 19.5584C65.3003 12.9771 72.3488 10.3975 75.5582 12.2459C78.991 14.2162 80.3113 22.1787 78.1581 32.6396C78.016 33.3303 77.8738 34.0006 77.691 34.6709C73.1816 33.6553 68.6113 32.924 64.0207 32.5178C61.38 28.7396 58.4957 25.124 55.3675 21.7318C56.1597 20.9803 56.9316 20.2693 57.7441 19.5584ZM34.2425 63.2709C35.2785 65.0381 36.3347 66.8053 37.4519 68.5318C34.2832 68.1865 31.1347 67.6787 28.0269 67.0084C28.9207 64.0834 30.0378 61.0568 31.3378 57.9693C32.2722 59.7568 33.2269 61.524 34.2425 63.2709ZM28.0878 38.835C31.0128 38.185 34.1207 37.6568 37.3503 37.2506C36.2738 38.9365 35.2175 40.6631 34.2222 42.41C33.2269 44.1365 32.2519 45.9037 31.3378 47.6912C30.0582 44.6646 28.9816 41.699 28.0878 38.835ZM33.6535 52.8303C34.9941 50.0271 36.4566 47.285 38.0003 44.5834C39.5441 41.8818 41.2097 39.2615 42.9566 36.6818C46.0035 36.4584 49.1113 36.3365 52.28 36.3365C55.4488 36.3365 58.5769 36.4584 61.6035 36.6818C63.33 39.2412 64.9753 41.8615 66.5394 44.5428C68.1035 47.224 69.566 49.9662 70.9472 52.749C69.5863 55.5521 68.1238 58.3146 66.5597 61.0365C65.016 63.7381 63.3707 66.3584 61.6441 68.9584C58.6175 69.1818 55.4691 69.2834 52.28 69.2834C49.091 69.2834 46.0035 69.1818 43.0175 68.999C41.2503 66.4193 39.5847 63.7787 38.0207 61.0771C36.4566 58.3756 35.0144 55.6334 33.6535 52.8303ZM70.3378 63.2303C71.3738 61.4428 72.3488 59.635 73.3035 57.8068C74.6035 60.7521 75.741 63.7381 76.7363 66.8053C73.5878 67.5162 70.3988 68.0646 67.1894 68.4303C68.2863 66.724 69.3222 64.9771 70.3378 63.2303ZM73.2628 47.6912C72.3082 45.9037 71.3332 44.1162 70.3175 42.3693C69.3222 40.6428 68.2863 38.9365 67.2097 37.2506C70.48 37.6568 73.6082 38.2053 76.5331 38.8756C75.5988 41.8818 74.5019 44.8068 73.2628 47.6912ZM52.3207 24.8396C54.4535 27.1553 56.4644 29.5928 58.3332 32.1115C54.3113 31.9287 50.2691 31.9287 46.2472 32.1115C48.2378 29.4912 50.2894 27.0537 52.3207 24.8396ZM28.7582 12.3881C32.1707 10.3975 39.7472 13.2412 47.73 20.31C48.2378 20.7568 48.7457 21.2443 49.2738 21.7318C46.1253 25.124 43.2207 28.7396 40.5597 32.5178C35.9691 32.924 31.4191 33.635 26.9097 34.6303C26.6457 33.5943 26.4222 32.5381 26.1988 31.4818C24.2894 21.6506 25.5488 14.2365 28.7582 12.3881ZM23.7816 65.9318C22.9285 65.6881 22.0957 65.424 21.2628 65.1396C16.9363 63.7787 12.0207 61.6256 8.46597 58.8021C6.4144 57.3803 5.03315 55.1865 4.64722 52.7287C4.64722 49.0115 11.066 44.2584 20.3285 41.0287C21.4863 40.6225 22.6644 40.2568 23.8425 39.9115C25.2238 44.3193 26.8894 48.6459 28.8191 52.8303C26.8691 57.0756 25.1832 61.4631 23.7816 65.9318ZM47.466 85.8381C44.1144 88.9053 40.2347 91.3428 36.0097 93.0084C33.755 94.085 31.155 94.1865 28.8394 93.2725C25.6097 91.4037 24.2691 84.2334 26.0972 74.585C26.3207 73.4475 26.5644 72.31 26.8488 71.1928C31.3988 72.1678 35.9894 72.8381 40.641 73.1834C43.3222 76.9818 46.2675 80.6178 49.416 84.0303C48.766 84.66 48.116 85.2693 47.466 85.8381ZM52.4425 80.9021C50.3707 78.6678 48.2988 76.1896 46.2878 73.5287C48.2378 73.61 50.2488 73.6506 52.28 73.6506C54.3722 73.6506 56.4238 73.61 58.455 73.5084C56.5863 76.0881 54.5753 78.5459 52.4425 80.9021ZM78.991 86.9959C78.8082 89.474 77.5894 91.7896 75.6394 93.3537C72.4097 95.2225 65.5238 92.785 58.0894 86.4068C57.2363 85.6756 56.3832 84.8834 55.5097 84.0709C58.6175 80.6381 61.4816 77.0021 64.0816 73.1834C68.7332 72.7975 73.3644 72.0865 77.9347 71.0506C78.1378 71.8834 78.3207 72.7162 78.4832 73.5287C79.4785 77.9162 79.641 82.4865 78.991 86.9959ZM82.6878 65.16C82.1191 65.3428 81.5503 65.5256 80.9613 65.6881C79.5394 61.26 77.7925 56.9334 75.7816 52.7287C77.7316 48.585 79.3769 44.3193 80.7582 39.9521C81.8144 40.2568 82.83 40.5818 83.805 40.9068C93.2707 44.1568 99.9128 48.9912 99.9128 52.6881C99.9128 56.6693 92.8238 61.8084 82.6878 65.16ZM52.28 62.1131C57.4191 62.1131 61.5832 57.949 61.5832 52.81C61.5832 47.6709 57.4191 43.5068 52.28 43.5068C47.141 43.5068 42.9769 47.6709 42.9769 52.81C42.9769 57.949 47.141 62.1131 52.28 62.1131Z" fill="#f97316"/>
</g>
<defs>
<clipPath id="clip0_1_136">
<rect width="104" height="104" fill="white" transform="translate(0.280029 0.810059)"/>
</clipPath>
</defs>
</svg>
